<?xml version="1.0" encoding="UTF-8"?>
<svg id="Layer_2" data-name="Layer 2" xmlns="http://www.w3.org/2000/svg" viewBox="0 0 1495.72 874.92">
  <defs>
    <style>
      .cls-1 {
        fill: #ed8723;
      }
    </style>
  </defs>
  <g>
    <path class="cls-1" d="M882.48,832.69c-11.56-4.23-24.03-6.59-34.05-12.86-29.79-18.68-58.59-38.94-87.84-58.48-4.78-3.2-8.79-10.08-16.19-3.97-.87.71-3.86-.76-5.66-1.64-35.04-17.11-70.5-33.42-104.81-51.88-13.71-7.38-25.58-18.78-36.83-29.83-4.43-4.35-6.78-12.79-6.73-19.33.12-15.81,9.08-20.31,22.41-12.21,46.6,28.34,95.45,53.71,138.91,86.25,31.87,23.86,69.83,34.71,101.21,57.89,12.43,9.17,24.44,18.96,36,29.2,2.39,2.12,3.01,7.72,2.29,11.29-.41,2.1-5.05,3.38-8.7,5.57"/>
    <path class="cls-1" d="M888.96,637.54c-25.15,20.83-56.29,32.61-79.62,56.18,31.48-8.62,57.42-28.8,86.47-42.2.67,1.15,1.33,2.31,2,3.46-27.15,17.12-54.3,34.25-81.44,51.37,1.15,1.98,2.3,3.96,3.45,5.95,29.29-12.87,55.08-32.88,85.18-44.81-1.56,1.7-2.86,3.77-4.71,5.05-21.72,15.11-43.45,30.21-65.34,45.07-11.19,7.6-23.56,9.86-37.18,8.6-8.96-.83-18.26,2.15-27.23,1.36-7.22-.64-14.16-4.36-21.53-8.4,18.02-7.94,25.24-22.3,30.38-39.03,1.76-5.73,7.29-11.78,12.7-14.67,26.67-14.25,53.84-27.52,80.92-40.99,1.93-.96,4.43-.79,6.66-1.14.59,1.16,1.17,2.32,1.76,3.48-27.83,15.56-55.67,31.12-83.51,46.68,1.08,2.05,2.16,4.1,3.23,6.15,30.03-12.15,57.32-30.66,87.82-42.12"/>
    <path class="cls-1" d="M725.21,759.57c-31.32,18.43-62.5,37.09-94.1,55.05-5.59,3.18-12.83,4.2-19.41,4.64-3.98.27-10.28-1.42-11.68-4.19-1.53-3.02.11-9.36,2.63-12.37,6.13-7.35,12.61-15.24,20.66-19.98,22.72-13.38,45.63-26.95,69.93-36.86,8.11-3.31,20.63,4.22,31.14,6.8.28,2.31.56,4.61.83,6.92"/>
    <path class="cls-1" d="M686.2,152.86c1.04,1.18,2.07,2.35,3.11,3.53-3.02,2.09-5.98,5.83-9.08,5.95-9.45.37-11.36,5.18-10.24,13.24,1.66,12.04,3.59,24.07,4.4,36.18.47,7,3.28,9.15,9.88,9.91,42.35,4.9,84.64,4.81,126.99.07,7.25-.81,10.03-3.76,10.56-10.99.88-12.1,2.76-24.12,4.29-36.16,1-7.81-1.89-11.57-10.2-12.22-3.39-.27-6.51-3.96-9.76-6.1.66-1.15,1.3-2.32,1.96-3.48,20.86,1.04,37.64-5.54,45.78-25.87,5.11-12.76.85-27.56-9.36-35.47-19.12-14.8-35-5.64-49.89,8.55-9.68-37.53-19.39-47.57-46.59-47.35-12.73.1-26.5,1.66-34.1,12.89-6.62,9.78-9.73,21.92-14.64,33.62-12.75-14.14-28.49-21.78-47.44-8.4-10.68,7.54-14.66,22.21-10.46,35.05,5.76,17.62,21.4,27.07,44.79,27.06M690.64,70.38c19.34-44.01,93.13-45.55,115.22,1.59,14.13-5.37,28.39-5.18,41.95,2.63,29.63,17.05,31.76,58.99,3.66,80.96-6.35,4.96-9.8,9.2-10.01,18.05-.41,17.53-2.58,35.11-5.55,52.41-.63,3.69-7.62,8.71-11.92,8.97-36.42,2.18-72.9,4.12-109.38,4.57-15.4.19-30.93-2.86-46.2-5.58-3.39-.61-7.97-5.77-8.48-9.34-2.69-18.64-3.86-37.51-6.47-56.16-.56-4.02-4.18-8.47-7.63-11.09-18.09-13.76-24.32-32.24-19.84-53.55,4.1-19.51,17.98-31.19,37.4-34.57,8.32-1.44,17.25.58,27.27,1.11"/>
    <path class="cls-1" d="M580.24,194.94c-36.39-6.34-70.24-.07-104.14,14.48-46.78,20.08-94.48,14.56-141.05-3.68-3.79-1.49-7.22-3.89-12.46-6.77,21.12,2.95,40.19,6.25,59.4,8.11,20.45,1.98,40.9-.68,58.4-11.65,24.36-15.28,50.53-17.6,77.67-14.3,20.94,2.54,41.67,6.96,62.49,10.54-.1,1.09-.2,2.18-.29,3.27"/>
    <path class="cls-1" d="M916.66,193.4c36.86-9.67,74.02-19.37,112.22-9.48,13.15,3.4,24.86,11.97,37.75,16.79,31.73,11.87,63.61,6.48,95.35-.69,2.82-.64,5.64-1.28,8.45-1.92.39,1.02.76,2.04,1.15,3.06-12.01,4.48-23.7,10.18-36.06,13.22-42.56,10.45-84.81,11.12-125.35-8.55-29.86-14.5-61.2-15.72-93.51-12.43"/>
  </g>
  <g>
    <path class="cls-1" d="M511.72,568.68h75.76v-64.49c8.6-.58,15.6-1.06,22.39-1.52v-67.93h-24.65c0-11.94-1.34-23.04.5-33.57,1.13-6.46,5.84-14.16,11.28-17.53,7.24-4.48,15.57-1.57,20.49,6.53,1.09,1.8,1.46,4.03,2.15,6.04,22.81-16.74,42.6-31.26,62.4-45.8-26.63-34.09-67.42-47.36-103.2-34.66-43.11,15.31-69.37,51.23-68.79,93.95.6,43.31,1.14,86.61,1.66,129.92.11,9.56.01,19.13.01,29.06M68.59,509.75c1,20.77,2.95,39.96,2.48,59.09-.32,13.02,6.37,16.93,16.78,18.44,34.86,5.02,64.87-5.86,86.56-32.81,22.18-27.57,26.7-59.2,9.85-92-6.13-11.93-13.16-23.47-18.51-35.74-7.69-17.65,3.91-32.58,22.82-30.43,1.93.22,3.9.03,4.79.03,0-21.46.34-42.38-.37-63.27-.1-3.01-4.84-7.69-8.17-8.47-54.84-12.79-107.75,31.56-105.81,87.86.74,21.46,10.22,39.47,19.98,57.65,5.75,10.7,16.55,21.23,7.04,34.43-9.18,12.74-22.49,10.68-37.45,5.25M1004.09,442.72c0-13.1-.77-25.27.26-37.3.75-8.82,5.39-16.61,15.86-16.22,10.65.4,13.59,8.46,14.12,17.54.31,5.44.05,10.92-.07,16.38-.95,44.53-1.94,89.06-2.89,133.59-.09,4.44-.01,8.87-.01,14.38h76.11c1.31-57.64,4.59-114.35,3.32-170.96-1.2-53.49-42.09-88.29-96.04-86.79-51.05,1.42-86.34,38.65-87.11,91.76-.71,50-1.53,100-2.29,150-.07,4.4,0,8.81,0,14.1h76.8v-58.22c5.99,0,9.88.66,13.38-.22,2.64-.66,6.82-3.21,6.87-5.01.49-20.34.31-40.7.31-61.32-6.21-.58-11.6-1.07-18.63-1.73M899.97,567.81c-12.73-31.27-24.44-60.87-36.94-90.14-3.55-8.32-3.39-13.31,3.56-20.49,23.35-24.14,32.32-52.59,19.8-85.38-12.14-31.82-45.17-54.71-80.35-55.24-31.93-.48-63.87-.22-95.81-.19-3.19,0-6.37.75-9.23,1.11v249.35h75.06v-180.32c23.81-3.32,37.56.98,39.6,12.28.75,4.21.5,11.18-2.04,12.96-8.12,5.66-17.52,9.48-27.88,14.75,0,14.45-.31,30.81.15,47.15.2,6.95.82,14.37,3.38,20.7,8.81,21.77,18.4,43.23,28.1,64.62,1.56,3.43,5.12,8.39,7.87,8.46,24.19.67,48.41.39,74.72.39M495.11,443.89c.79-69.83-58.36-127.52-131.6-128.36-71.71-.83-132.18,57.19-132.8,127.38-.64,72.32,59.51,135.99,129.25,136.81,73.79.87,134.3-59.94,135.15-135.83M1294.61,354.61c-2.7-3.6-5.08-6.99-7.67-10.2-18.22-22.6-49.56-31.57-77.41-22.21-28.11,9.46-48.57,35.4-49.47,63.68-1.84,58.39-3.36,116.8-4.98,175.2-.1,3.99-.01,7.98-.01,13.64h75.9c0-15.54-.31-31.02.07-46.48.9-37.39,2.01-74.79,3.32-112.17.29-8.3.37-18.86,12.36-17.92,10.51.83,8.38,10.61,8.51,17.96.03,1.68-.09,3.36-.14,5.04-1.64,47.46-3.3,94.93-4.9,142.39-.15,4.38-.02,8.77-.02,14.61h73.62c1.02-22.11,2.16-43.87,3.01-65.65,1.22-31.49,2.12-63,3.43-94.49.31-7.72,1.76-16.73,11.4-16.79,10.64-.07,10.11,9.38,9.81,16.95-1.21,31.5-2.99,62.98-3.87,94.48-.62,22.14-.12,44.31-.12,68.7h71.18c.18-.81.76-2.39.83-4,2.64-58.35,5.93-116.68,7.59-175.06,1.06-37-17.92-66.01-47.93-75.02-33.66-10.11-62.01-.74-84.49,27.31M19.63,282.7c486.01-16.23,970.55-16.18,1455.97-.05.4-8.97.7-15.89,1.02-23.29-3.4-.54-5.81-1.09-8.25-1.28-64.53-4.9-129.06-9.92-193.62-14.41-8.17-.57-13.89-2.56-18.99-9.39-24.58-32.92-54.39-60.6-87.52-84.72-75.21-54.76-159.73-88.7-249.54-110.32-62.34-15.01-125.58-23.95-189.85-21.42-83.74,3.31-165.04,19.9-243.59,49.06-96.86,35.97-183.68,86.82-248.21,170.17-2.41,3.11-7.31,5.69-11.26,6-38.54,3.09-77.13,5.56-115.7,8.38-30.05,2.19-60.09,4.61-90.46,6.95v24.31ZM1460.28,634.88c-475.67-39.11-950.32-39.17-1424.7.01q-2.08,20.55,14.97,20.17c57.17-1.26,114.36-2.13,171.51-4.06,15.59-.53,28.57.56,36.66,16.29,2.76,5.37,8.34,9.36,12.93,13.68,38.53,36.24,81.81,65.89,128.48,90.46,133.54,70.31,275.6,96.62,425.59,81.5,114-11.48,219.66-47.15,316.3-108.83,36.22-23.11,71.14-48.19,98.68-81.62,6.98-8.47,13.3-11.85,23.95-11.55,60.1,1.72,120.23,2.82,180.35,4.1,4.88.1,9.76.01,15.29.01v-20.15ZM1495.72,241.64c-6.05,144.17-12.03,286.81-18.09,431.19-5.66,0-10.53.09-15.4-.01-63.9-1.25-127.81-2.41-191.7-3.95-7.82-.19-12.79,2.03-18.25,8.01-44.22,48.44-98.01,84.19-155.72,114.23-121.01,63.01-250.32,89.34-386.05,82.84-152.55-7.31-291.48-54.7-413.35-148.06-20.22-15.49-37.4-34.88-56.67-51.68-4.07-3.55-11.17-5.16-16.84-5.08-63.48.94-126.96,2.39-190.44,3.68-4.59.09-9.2.01-15.22.01C11.99,529.24,6.02,386.28,0,241.98c34.98-2.73,68.79-5.52,102.63-7.98,37.73-2.75,75.5-5.05,113.21-8.01,4.05-.31,9.11-2.69,11.59-5.79,69.17-86.39,161.28-138.28,263.48-174.38C575.51,15.95,662.87-2.13,752.75.2c157.34,4.08,303.7,45.59,431.78,139.96,29.12,21.46,53.46,49.53,79.17,75.39,6.64,6.67,12.46,10.58,22.15,11.22,69.19,4.52,138.33,9.72,209.87,14.87"/>
    <path class="cls-1" d="M420.91,445.55c-.48,33.9-27.41,61.2-59.72,60.55-30.89-.62-56.46-29.33-56.01-62.86.41-29.69,26.92-54.13,58.52-53.96,32.35.18,57.64,25.05,57.2,56.27"/>
  </g>
</svg>